<svg width="20" height="23" viewBox="0 0 20 23" fill="none" xmlns="http://www.w3.org/2000/svg">
<g id="Group 2">
<path id="Vector" d="M1.31616 17.8687H18.6846" stroke="#747474" stroke-width="1.83333" stroke-linecap="round" stroke-linejoin="round"/>
<path id="Vector_2" d="M18.6846 17.8684C18.2426 17.8147 17.8314 17.6145 17.5165 17.2996C17.2017 16.9848 17.0014 16.5736 16.9477 16.1316V11.7895C16.9477 7.44736 13.9812 3.60547 10.0004 3.60547C6.01953 3.60547 3.053 7.44736 3.053 11.7895V16.1316C2.99931 16.5736 2.79905 16.9848 2.48422 17.2996C2.16939 17.6145 1.75815 17.8147 1.31616 17.8684" stroke="#747474" stroke-width="1.83333" stroke-linecap="round" stroke-linejoin="round"/>
<path id="Vector_3" d="M13.4745 17.8687C13.4745 18.7899 13.1085 19.6735 12.457 20.3249C11.8056 20.9764 10.9221 21.3423 10.0008 21.3423C9.07951 21.3423 8.19596 20.9764 7.54452 20.3249C6.89308 19.6735 6.5271 18.7899 6.5271 17.8687" stroke="#747474" stroke-width="1.83333" stroke-linecap="round" stroke-linejoin="round"/>
<path id="Vector_4" d="M10.0002 3.6057V1.36865" stroke="#747474" stroke-width="1.83333" stroke-linecap="round" stroke-linejoin="round"/>
</g>
</svg>
