<svg width="20" height="20" viewBox="0 0 20 20" fill="none" xmlns="http://www.w3.org/2000/svg">
<path d="M19.6 10.2271C19.6 9.518 19.5364 8.83618 19.4182 8.18164H10V12.0544H15.3818C15.1455 13.2998 14.4364 14.3543 13.3727 15.0634V17.5816H16.6182C18.5091 15.8362 19.6 13.2725 19.6 10.2271Z" fill="#4285F4"/>
<path d="M10.0001 20.0001C12.7001 20.0001 14.9637 19.1091 16.6183 17.5819L13.3728 15.0637C12.4819 15.6637 11.3455 16.0273 10.0001 16.0273C7.40004 16.0273 5.19095 14.2728 4.40004 11.9092H1.07275V14.491C2.71821 17.7546 6.09095 20.0001 10.0001 20.0001Z" fill="#34A853"/>
<path d="M4.40001 11.8999C4.20001 11.2999 4.08183 10.6635 4.08183 9.99986C4.08183 9.33623 4.20001 8.69987 4.40001 8.09987V5.51807H1.07273C0.39091 6.86352 0 8.38169 0 9.99986C0 11.618 0.39091 13.1362 1.07273 14.4817L3.66365 12.4635L4.40001 11.8999Z" fill="#FBBC05"/>
<path d="M10.0001 3.9818C11.4728 3.9818 12.7819 4.49089 13.8273 5.4727L16.691 2.60908C14.9546 0.990905 12.7001 0 10.0001 0C6.09095 0 2.71821 2.24544 1.07275 5.51816L4.40004 8.09996C5.19095 5.73634 7.40004 3.9818 10.0001 3.9818Z" fill="#EA4335"/>
</svg>
