<svg width="14" height="14" viewBox="0 0 14 14" fill="none" xmlns="http://www.w3.org/2000/svg">
<path d="M5.5 1H1.57692C1.2583 1 1 1.2583 1 1.57692V5.5C1 5.81863 1.2583 6.07692 1.57692 6.07692H5.5C5.81863 6.07692 6.07692 5.81863 6.07692 5.5V1.57692C6.07692 1.2583 5.81863 1 5.5 1Z" stroke="#747474" stroke-width="0.781638" stroke-linecap="round" stroke-linejoin="round"/>
<path d="M12.4231 1H8.50002C8.18139 1 7.9231 1.2583 7.9231 1.57692V5.5C7.9231 5.81863 8.18139 6.07692 8.50002 6.07692H12.4231C12.7417 6.07692 13 5.81863 13 5.5V1.57692C13 1.2583 12.7417 1 12.4231 1Z" stroke="#747474" stroke-width="0.781638" stroke-linecap="round" stroke-linejoin="round"/>
<path d="M5.5 7.92334H1.57692C1.2583 7.92334 1 8.18164 1 8.50026V12.4233C1 12.742 1.2583 13.0003 1.57692 13.0003H5.5C5.81863 13.0003 6.07692 12.742 6.07692 12.4233V8.50026C6.07692 8.18164 5.81863 7.92334 5.5 7.92334Z" stroke="#747474" stroke-width="0.781638" stroke-linecap="round" stroke-linejoin="round"/>
<path d="M12.4231 7.92334H8.50002C8.18139 7.92334 7.9231 8.18164 7.9231 8.50026V12.4233C7.9231 12.742 8.18139 13.0003 8.50002 13.0003H12.4231C12.7417 13.0003 13 12.742 13 12.4233V8.50026C13 8.18164 12.7417 7.92334 12.4231 7.92334Z" stroke="#747474" stroke-width="0.781638" stroke-linecap="round" stroke-linejoin="round"/>
</svg>
