<svg width="24" height="12" viewBox="0 0 24 12" fill="none" xmlns="http://www.w3.org/2000/svg">
<path d="M5.481 1.6725V0.1725H24V1.6725H5.481ZM5.481 6.75V5.25H24V6.75H5.481ZM5.481 11.8275V10.3275H24V11.8275H5.481ZM0.9225 1.845C0.6615 1.845 0.4425 1.7535 0.2655 1.5705C0.0885001 1.3875 0 1.162 0 0.894C0 0.641 0.0885001 0.428499 0.2655 0.256499C0.4425 0.0854993 0.6615 0 0.9225 0C1.1845 0 1.404 0.0854993 1.581 0.256499C1.758 0.428499 1.8465 0.641 1.8465 0.894C1.8465 1.164 1.758 1.39 1.581 1.572C1.404 1.754 1.1845 1.8455 0.9225 1.8465V1.845ZM0.9225 6.8925C0.6615 6.8925 0.4425 6.807 0.2655 6.636C0.0885001 6.465 0 6.253 0 6C0 5.71 0.0885001 5.4785 0.2655 5.3055C0.4425 5.1325 0.6615 5.0465 0.9225 5.0475C1.1845 5.0475 1.404 5.134 1.581 5.307C1.758 5.479 1.8465 5.71 1.8465 6C1.8465 6.253 1.758 6.4655 1.581 6.6375C1.404 6.8085 1.1845 6.8925 0.9225 6.8925ZM0.9225 11.9985C0.6615 11.9985 0.4425 11.9075 0.2655 11.7255C0.0885001 11.5435 0 11.3175 0 11.0475C0 10.7945 0.0885001 10.5825 0.2655 10.4115C0.4425 10.2405 0.6615 10.1545 0.9225 10.1535C1.1845 10.1535 1.404 10.2395 1.581 10.4115C1.758 10.5825 1.8465 10.7945 1.8465 11.0475C1.8465 11.3175 1.758 11.544 1.581 11.727C1.404 11.909 1.1845 12 0.9225 12V11.9985Z" fill="white"/>
</svg>
