<svg width="316" height="107" viewBox="0 0 316 107" fill="none" xmlns="http://www.w3.org/2000/svg">
<g filter="url(#filter0_dd_946_4949)">
<path d="M280.254 56.6683L280.254 56.6682C280.67 55.6872 280.9 54.6111 280.9 53.4797C280.9 51.7725 280.385 50.2011 279.499 48.8897C278.613 47.5829 277.356 46.5366 275.884 45.916L275.884 45.916C274.903 45.5006 273.827 45.2703 272.691 45.2703C270.984 45.2703 269.412 45.7858 268.101 46.6718C266.794 47.558 265.748 48.8147 265.127 50.286L265.127 50.2861C264.712 51.2671 264.481 52.3432 264.481 53.4797C264.481 55.1817 264.997 56.7532 265.883 58.0647C266.769 59.3715 268.026 60.4177 269.497 61.0383L269.497 61.0383C270.478 61.4537 271.554 61.684 272.691 61.684C274.398 61.684 275.969 61.1685 277.281 60.2826L280.254 56.6683ZM280.254 56.6683C279.634 58.1396 278.588 59.3963 277.281 60.2825L280.254 56.6683ZM272.691 42.4724C274.964 42.4673 277.089 43.1653 278.844 44.3506C280.599 45.536 281.994 47.2139 282.831 49.1896C283.39 50.5087 283.698 51.961 283.698 53.4746C283.698 55.7478 283.005 57.8724 281.82 59.6275C280.635 61.3824 278.957 62.7781 276.981 63.6146C275.662 64.174 274.21 64.4819 272.696 64.4819C272.696 64.4819 272.696 64.4819 272.696 64.4819V64.3649L272.691 42.4724ZM272.691 42.4724C271.177 42.4724 269.725 42.7803 268.406 43.3397C266.43 44.1762 264.752 45.5719 263.567 47.3268C262.381 49.0819 261.689 51.2065 261.689 53.4797C261.689 54.9933 261.996 56.4457 262.556 57.7647L272.691 42.4724Z" fill="white" stroke="#AB47FF" stroke-width="0.233971"/>
<path d="M251.862 47.6046L251.862 47.6043C251.414 46.5462 250.663 45.6492 249.719 45.0167C248.776 44.3842 247.629 44.0109 246.409 44.0109H235.453H235.17L235.371 44.2109L237.951 46.7775L237.985 46.8115H238.034H246.414C246.848 46.8115 247.251 46.8995 247.621 47.0515C248.178 47.2868 248.655 47.6787 248.99 48.173C249.325 48.668 249.522 49.2553 249.522 49.8964C249.522 50.3272 249.433 50.7283 249.276 51.0955L249.276 51.0956C249.039 51.6491 248.645 52.1243 248.148 52.4573C247.651 52.7902 247.06 52.9814 246.414 52.9864H238.034H237.917V53.1034V55.67V55.7869H238.034H246.414C246.848 55.7869 247.251 55.875 247.621 56.0269C248.178 56.2622 248.655 56.6541 248.99 57.1484C249.325 57.6435 249.522 58.2307 249.522 58.8718C249.522 59.3027 249.433 59.7038 249.276 60.0709L249.276 60.0711C249.039 60.6246 248.645 61.0997 248.148 61.4327C247.65 61.7661 247.059 61.9618 246.414 61.9618H238.034H237.985L237.951 61.9959L235.371 64.5625L235.17 64.7624H235.453H246.409C247.222 64.7624 248.004 64.5965 248.713 64.301L248.713 64.301C249.777 63.855 250.679 63.1083 251.315 62.1698C251.951 61.2313 252.326 60.0905 252.326 58.8769C252.326 58.068 252.159 57.2902 251.862 56.5851L251.862 56.5845C251.495 55.727 250.935 54.9773 250.236 54.3845C250.649 54.0372 251.013 53.6374 251.315 53.1891C251.951 52.2506 252.326 51.1098 252.326 49.8964C252.326 49.0874 252.159 48.3097 251.862 47.6046Z" fill="white" stroke="#AB47FF" stroke-width="0.233971"/>
<path d="M223.026 64.6454V64.9276L223.226 64.7282L225.79 62.166L225.824 62.1317V62.0833V44.1279V44.0109H225.708H223.143H223.026V44.1279V64.6454Z" fill="white" stroke="#AB47FF" stroke-width="0.233971"/>
<path d="M196.984 44.0109H196.704L196.9 44.21L199.423 46.7721L199.458 46.8071H199.507H203.81V64.6454V64.7624H203.927H206.455H206.572V64.6454V46.8071H210.875H210.924L210.958 46.7721L213.481 44.21L213.677 44.0109H213.398H196.984Z" fill="white" stroke="#AB47FF" stroke-width="0.233971"/>
<path d="M293.244 44.0109H292.961L293.162 44.2109L295.737 46.773L295.771 46.8071H295.819H300.215V64.6454V64.7624H300.332H302.912H303.029V64.6454V46.8071H307.424H307.473L307.507 46.773L310.082 44.2109L310.283 44.0109H310H293.244Z" fill="white" stroke="#AB47FF" stroke-width="0.233971"/>
<path d="M181.438 52.9886H176.282C174.567 52.9837 173.179 51.6068 173.174 49.8978C173.179 48.1991 174.567 46.8171 176.282 46.8121H184.013H184.061L184.096 46.7781L186.676 44.2109L186.877 44.0109H186.594H176.282C173.014 44.0109 170.365 46.6452 170.365 49.8978C170.365 53.1504 173.014 55.7847 176.282 55.7847H181.437C183.152 55.7896 184.54 57.1715 184.545 58.8755C184.54 60.5797 183.157 61.9612 181.438 61.9612H173.057H173.009L172.975 61.9953L170.399 64.5625L170.199 64.7624H170.482H181.438C184.706 64.7624 187.355 62.1281 187.355 58.8755C187.355 55.6229 184.706 52.9886 181.438 52.9886Z" fill="white" stroke="#AB47FF" stroke-width="0.233971"/>
<path d="M160.819 44.2104L161.017 44.0109H160.736H144.156H144.151H144.034V44.1279V46.6945V46.8115H144.151H158.182H158.231L158.265 46.777L160.819 44.2104ZM158.304 53.1034V52.9864H158.187H144.156H144.039V53.1034V55.67V55.7869H144.156H158.187H158.304V55.67V53.1034ZM144.156 61.9618H144.039V62.0788V64.6454V64.7624H144.156H160.736H161.017L160.819 64.5629L158.265 61.9963L158.231 61.9618H158.182H144.156Z" fill="white" stroke="#AB47FF" stroke-width="0.233971"/>
<path d="M125.6 58.4594L119.508 44.0823L119.478 44.0109H119.401H116.623H116.447L116.516 44.1735L125.492 65.3749L125.6 65.6294L125.708 65.3749L134.684 44.1735L134.753 44.0109H134.576H131.794H131.716L131.686 44.0823L125.6 58.4594Z" fill="white" stroke="#AB47FF" stroke-width="0.233971"/>
<path d="M104.185 58.1089L90.2045 44.0455L90.0046 43.8443V44.1279V64.6454V64.9268L90.2041 64.7283L92.7796 62.1662L92.814 62.1319V62.0833V50.6644L106.795 64.7279L106.994 64.929V64.6454V44.1279V43.8465L106.795 44.045L104.22 46.6071L104.185 46.6414V46.6901V58.1089Z" fill="white" stroke="#AB47FF" stroke-width="0.233971"/>
<path d="M77.8652 64.6454V64.9276L78.0649 64.7282L80.6295 62.166L80.6638 62.1317V62.0833V44.1279V44.0109H80.5469H77.9822H77.8652V44.1279V64.6454Z" fill="white" stroke="#AB47FF" stroke-width="0.233971"/>
</g>
<g filter="url(#filter1_dd_946_4949)">
<path d="M62.3599 45.3086L62.369 45.2868V45.2632V45.263V45.2628V45.2627V45.2625V45.2623V45.2621V45.2619V45.2617V45.2616V45.2614V45.2612V45.261V45.2608V45.2606V45.2604V45.2602V45.26V45.2599V45.2597V45.2595V45.2593V45.2591V45.2589V45.2587V45.2585V45.2583V45.2581V45.2579V45.2577V45.2575V45.2573V45.2571V45.2569V45.2567V45.2565V45.2563V45.2561V45.2559V45.2557V45.2555V45.2553V45.2551V45.2549V45.2547V45.2545V45.2543V45.2541V45.2539V45.2536V45.2534V45.2532V45.253V45.2528V45.2526V45.2524V45.2522V45.252V45.2518V45.2515V45.2513V45.2511V45.2509V45.2507V45.2505V45.2502V45.25V45.2498V45.2496V45.2494V45.2492V45.2489V45.2487V45.2485V45.2483V45.2481V45.2478V45.2476V45.2474V45.2472V45.247V45.2467V45.2465V45.2463V45.2461V45.2458V45.2456V45.2454V45.2452V45.2449V45.2447V45.2445V45.2443V45.244V45.2438V45.2436V45.2434V45.2431V45.2429V45.2427V45.2424V45.2422V45.242V45.2418V45.2415V45.2413V45.2411V45.2408V45.2406V45.2404V45.2401V45.2399V45.2397V45.2394V45.2392V45.239V45.2388V45.2385V45.2383V45.2381V45.2378V45.2376V45.2374V45.2371V45.2369V45.2366V45.2364V45.2362V45.2359V45.2357V45.2355V45.2352V45.235V45.2348V45.2345V45.2343V45.2341V45.2338V45.2336V45.2333V45.2331V45.2329V45.2326V45.2324V45.2322V45.2319V45.2317V45.2314V45.2312V45.231V45.2307V45.2305V45.2303V45.23V45.2298V45.2295V45.2293V45.2291V45.2288V45.2286V45.2283V45.2281V45.2279V45.2276V45.2274V45.2271V45.2269V45.2267V45.2264V45.2262V45.226V45.2257V45.2255V45.2252V45.225V45.2248V45.2245V45.2243V45.224V45.2238V45.2236V45.2233V45.2231V45.2228V45.2226V45.2224V45.2221V45.2219V45.2217V45.2214V45.2212V45.2209V45.2207V45.2205V45.2202V45.22V45.2197V45.2195V45.2193V45.219V45.2188V45.2186V45.2183V45.2181V45.2178V45.2176V45.2174V45.2171V45.2169V45.2167V45.2164V45.2162V45.216V45.2157V45.2155V45.2153V45.215V45.2148V45.2145V45.2143V45.2141V45.2138V45.2136V45.2134V45.2131V45.2129V45.2127V45.2124V45.2122V45.212V45.2118V45.2115V45.2113V45.2111V45.2108V45.2106V45.2104V45.2101V45.2099V45.2097V45.2094V45.2092V45.209V45.2088V45.2085V45.2083V45.2081V45.2078V45.2076V45.2074V45.2072V45.2069V45.2067V45.2065V45.2063V45.206V45.2058V45.2056V45.2054V45.2051V45.2049V45.2047V45.2045V45.2043V45.204V45.2038V45.2036V45.2034V45.2032V45.2029V45.2027V45.2025V45.2023V45.2021V45.2018V45.2016V45.2014V45.2012V45.201V45.2008V45.2005V45.2003V45.2001V45.1999V45.1997V45.1995V45.1993V45.1991V45.1988V45.1986V45.1984V45.1982V45.198V45.1978V45.1976V45.1974V45.1972V45.197V45.1968V45.1966V45.1964V45.1961V45.1959V45.1957V45.1955V45.1953V45.1951V45.1949V45.1947V45.1945V45.1943V45.1941V45.1939V45.1937V45.1935V45.1933V45.1931V45.193V45.1928V45.1926V45.1924V45.1922V45.192V45.1918V45.1916V45.1914V45.1912V45.191V45.1908V45.1907V45.1905V45.1903V45.1901V45.1899V45.1897V45.1895V45.1894V45.1892V45.189V45.1888V45.1886V45.1884V45.1883V45.1881V45.1879V45.1877V45.1876V45.1874V45.1872V45.187V45.1869V45.1867V45.1865V45.1863V45.1862V45.186V45.1858V45.1857V45.1855V45.1853V45.1852V45.185V45.1848V45.1847V45.1845V45.1843V45.1842V45.184V45.1839V45.1837V45.1836V45.1834V45.1832V45.1831V45.1829V45.1828V45.1826V45.1825V45.1823V45.1822V45.182V45.1819V45.1817V45.1816V45.1814V45.1813V45.1811V45.181V45.1809V45.1807V45.1806V45.1804V45.1803V45.1802V45.18V45.1799V45.1797V45.1796V45.1795V45.1793V45.1792V45.1791V45.179V45.1788V45.1787V45.1786V45.1784V45.1783V45.1782V45.1781V45.1779V45.1778V45.1777V45.1776V45.1775V45.1774V45.1772V45.1771V45.177V45.1769V45.1768V45.1767V45.1766V45.1765V45.1763V45.1762V45.1761V45.176V45.1759V45.1758V45.1757V45.1756V45.1755V45.1754V45.1753V45.1752V45.1751V45.175V45.1749V45.1749V45.1748V45.1747V45.1746V45.1745V45.1744V45.1743V45.1742V45.1742V45.1741V45.174V45.1739V45.1738V45.1738V45.1737V45.1736V45.1735V45.1735V45.1734V45.1733V45.1733V45.1732V45.1731V45.1731V45.173V45.1729V45.1729V45.1728V45.1727V45.1727V45.1726V45.1726V45.1725V45.1725V45.1724V45.1724V45.1723V45.1723V45.1722V45.1722V45.1721V45.1721V45.172V45.172V45.172V45.1719V45.1719V45.1718V45.1718V45.1718V45.1717V45.1717V45.1717V45.1716V45.1716V45.1715V45.1715V45.1715V45.1714V45.1714V45.1579L62.366 45.1448C62.3521 45.0854 62.3333 45.0219 62.3157 44.9627C62.3064 44.9311 62.2973 44.9007 62.2897 44.8729C62.2658 44.7866 62.2497 44.7095 62.2494 44.636C62.2392 42.0339 62.2391 39.4316 62.2493 36.7726L62.2494 36.7616L62.2473 36.7507C62.026 35.5676 61.5272 34.6243 60.7871 33.9534C60.0469 33.2825 59.0735 32.8914 57.9161 32.7987C57.8527 32.7936 57.7668 32.7622 57.6851 32.7108C57.6029 32.6589 57.542 32.5974 57.5158 32.5463L57.4117 32.5997L57.5158 32.5463C54.2843 26.2457 49.0412 22.4385 42.4226 20.335C42.3517 20.3125 42.2677 20.2698 42.1968 20.2166C42.1231 20.1613 42.0789 20.1062 42.0648 20.0646C41.6394 18.8073 40.6802 18.0857 39.5975 17.5269C38.2677 16.8405 36.8364 16.5238 35.2844 16.3727C35.2843 16.2022 35.284 16.0316 35.2837 15.8611C35.2824 15.1035 35.2812 14.3455 35.2972 13.5876C35.2983 13.5858 35.3 13.5832 35.3027 13.5796C35.3129 13.5665 35.3301 13.5495 35.3547 13.53C35.4036 13.4913 35.4673 13.454 35.5195 13.4282C37.2159 12.5918 38.1139 11.1506 37.9463 9.46852C37.7703 7.7015 36.6063 6.44943 34.6661 5.9318L34.6562 5.92915L34.646 5.92827C34.1201 5.88301 33.6634 5.88301 33.2117 5.88301H33.2101H33.1756L33.1467 5.90169C33.1001 5.93174 33.0514 5.96691 33.006 5.99971C32.9817 6.0173 32.9583 6.0342 32.9366 6.04927C32.8699 6.09575 32.8085 6.13355 32.7455 6.15804C31.2166 6.75204 30.1836 8.13138 30.1839 9.72591C30.1841 10.5659 30.379 11.2999 30.7714 11.9137C31.1637 12.5276 31.749 13.014 32.5181 13.3662C32.6643 13.4332 32.7486 13.4934 32.7983 13.5641C32.8462 13.6322 32.8728 13.7256 32.8678 13.883C32.848 14.4987 32.8521 15.1164 32.8559 15.694C32.8571 15.8849 32.8583 16.0713 32.8587 16.2519C32.507 16.3415 32.1576 16.4237 31.8116 16.5051C30.9792 16.7011 30.1665 16.8924 29.3886 17.1694C27.9283 17.6895 26.5986 18.4822 26.0469 20.133C26.044 20.1415 26.0349 20.1576 26.0103 20.1797C25.9863 20.2013 25.9531 20.2237 25.9121 20.2459C25.8299 20.2904 25.7299 20.3272 25.644 20.3542C20.4889 21.9772 16.0837 24.7275 12.7915 29.0829C12.3903 29.6136 12.0385 30.1795 11.6985 30.7493C11.6105 30.8967 11.5234 31.0442 11.4365 31.1915C11.1865 31.615 10.9377 32.0364 10.6728 32.4472C10.6219 32.5262 10.5407 32.6126 10.4493 32.6804C10.3559 32.7497 10.2653 32.7897 10.1962 32.795C9.08079 32.8797 8.12782 33.2626 7.39009 33.9178C6.65253 34.5729 6.13708 35.494 5.88573 36.6439L5.88303 36.6562L5.88303 36.6689C5.88276 38.6485 5.88693 40.6053 5.89116 42.5907C5.89298 43.4442 5.89481 44.303 5.8963 45.1712L5.89632 45.1816L5.89816 45.1917C6.10604 46.3461 6.61332 47.2829 7.35329 47.9538C8.0932 48.6247 9.05964 49.0243 10.1765 49.1145C10.2544 49.1208 10.3595 49.1663 10.462 49.2417C10.5635 49.3163 10.6461 49.4081 10.6865 49.488C12.8772 53.8205 16.1947 57.0541 20.4246 59.347C26.6177 62.7041 33.2259 63.6052 40.0771 62.1366C47.7176 60.4988 53.7672 56.5321 57.4772 49.4303C57.5126 49.3626 57.5888 49.285 57.6864 49.2211C57.7839 49.1574 57.8865 49.118 57.9639 49.1119C60.0148 48.9489 61.5368 47.7489 62.1382 45.7817L62.0263 45.7475L62.1382 45.7817C62.1592 45.7132 62.192 45.6458 62.2326 45.5676C62.2386 45.556 62.2448 45.5442 62.2511 45.5321C62.2863 45.465 62.3255 45.3902 62.3599 45.3086ZM42.5342 32.4498C46.8727 32.45 50.0814 34.8951 51.2136 39.061C52.3745 44.3977 48.3736 49.4262 43.0025 49.453C37.0425 49.4828 31.0822 49.4805 25.1221 49.4532C20.4768 49.4319 16.7127 45.5988 16.7058 40.9427C16.6989 36.2987 20.5285 32.4612 25.204 32.4526C29.3203 32.4451 33.4365 32.4467 37.5528 32.4484C39.2133 32.4491 40.8737 32.4498 42.5342 32.4498Z" fill="white" stroke="#AB47FF" stroke-width="0.233971"/>
<path d="M32.8 101.004L32.8229 101.015H32.848H32.8502C33.6447 101.015 34.3864 101.015 35.1366 100.966L35.1367 100.966L35.1477 100.965C38.3017 100.454 40.963 99.0164 43.2297 96.8395C47.4061 92.8287 49.885 87.8904 51.0323 82.2677C51.5823 79.5724 51.7094 76.8547 50.907 74.1501C49.7529 70.2601 47.0503 67.8799 43.3275 66.7102C37.388 64.8441 31.344 64.8058 25.3773 66.503C22.4022 67.3493 20.1753 68.77 18.7118 70.7627C17.2485 72.7554 16.5574 75.308 16.6316 78.4017C16.7976 85.3232 19.4897 91.2709 24.2316 96.2674C26.4871 98.6439 29.1862 100.333 32.5191 100.828C32.5305 100.83 32.5492 100.839 32.6031 100.88C32.6064 100.882 32.6099 100.885 32.6134 100.888C32.659 100.922 32.7211 100.969 32.8 101.004Z" fill="white" stroke="#AB47FF" stroke-width="0.233971"/>
<path d="M25.9574 37.0685L25.9417 37.0665L25.9261 37.0688C25.7315 37.0976 25.5437 37.1167 25.3559 37.1357C25.2251 37.1489 25.0943 37.1621 24.9613 37.1786C24.6456 37.2179 24.3345 37.2745 24.0462 37.394C22.1951 38.1616 21.3033 40.1261 21.8663 41.9976C22.4301 43.8713 24.26 45.0061 26.2393 44.7174C28.1355 44.4408 29.5637 42.771 29.5425 40.8552C29.5209 38.8888 28.0525 37.3252 25.9574 37.0685Z" fill="#AB47FF" stroke="#AB47FF" stroke-width="0.233971"/>
<path d="M45.7882 42.9523L45.7887 42.9526L45.7945 42.9424C46.2294 42.1734 46.4382 41.4137 46.399 40.6717C46.3598 39.929 46.0725 39.2141 45.532 38.5348C44.5283 37.2732 43.1467 36.8312 41.5696 37.1857C39.8232 37.5783 38.6226 39.0491 38.5624 40.7628C38.5026 42.4665 39.5833 44.0143 41.2082 44.5539C42.9176 45.1217 44.689 44.5087 45.7882 42.9523Z" fill="#AB47FF" stroke="#AB47FF" stroke-width="0.233971"/>
</g>
<defs>
<filter id="filter0_dd_946_4949" x="72.7482" y="37.3555" width="242.819" height="33.5737" filterUnits="userSpaceOnUse" color-interpolation-filters="sRGB">
<feFlood flood-opacity="0" result="BackgroundImageFix"/>
<feColorMatrix in="SourceAlpha" type="matrix" values="0 0 0 0 0 0 0 0 0 0 0 0 0 0 0 0 0 0 127 0" result="hardAlpha"/>
<feOffset/>
<feGaussianBlur stdDeviation="2.5"/>
<feComposite in2="hardAlpha" operator="out"/>
<feColorMatrix type="matrix" values="0 0 0 0 0.670588 0 0 0 0 0.278431 0 0 0 0 1 0 0 0 1 0"/>
<feBlend mode="normal" in2="BackgroundImageFix" result="effect1_dropShadow_946_4949"/>
<feColorMatrix in="SourceAlpha" type="matrix" values="0 0 0 0 0 0 0 0 0 0 0 0 0 0 0 0 0 0 127 0" result="hardAlpha"/>
<feOffset/>
<feGaussianBlur stdDeviation="2.5"/>
<feComposite in2="hardAlpha" operator="out"/>
<feColorMatrix type="matrix" values="0 0 0 0 0.670588 0 0 0 0 0.278431 0 0 0 0 1 0 0 0 1 0"/>
<feBlend mode="normal" in2="effect1_dropShadow_946_4949" result="effect2_dropShadow_946_4949"/>
<feBlend mode="normal" in="SourceGraphic" in2="effect2_dropShadow_946_4949" result="shape"/>
</filter>
<filter id="filter1_dd_946_4949" x="0.766052" y="0.766113" width="66.72" height="105.366" filterUnits="userSpaceOnUse" color-interpolation-filters="sRGB">
<feFlood flood-opacity="0" result="BackgroundImageFix"/>
<feColorMatrix in="SourceAlpha" type="matrix" values="0 0 0 0 0 0 0 0 0 0 0 0 0 0 0 0 0 0 127 0" result="hardAlpha"/>
<feOffset/>
<feGaussianBlur stdDeviation="2.5"/>
<feComposite in2="hardAlpha" operator="out"/>
<feColorMatrix type="matrix" values="0 0 0 0 0.670588 0 0 0 0 0.278431 0 0 0 0 1 0 0 0 1 0"/>
<feBlend mode="normal" in2="BackgroundImageFix" result="effect1_dropShadow_946_4949"/>
<feColorMatrix in="SourceAlpha" type="matrix" values="0 0 0 0 0 0 0 0 0 0 0 0 0 0 0 0 0 0 127 0" result="hardAlpha"/>
<feOffset/>
<feGaussianBlur stdDeviation="2.5"/>
<feComposite in2="hardAlpha" operator="out"/>
<feColorMatrix type="matrix" values="0 0 0 0 0.670588 0 0 0 0 0.278431 0 0 0 0 1 0 0 0 0.5 0"/>
<feBlend mode="normal" in2="effect1_dropShadow_946_4949" result="effect2_dropShadow_946_4949"/>
<feBlend mode="normal" in="SourceGraphic" in2="effect2_dropShadow_946_4949" result="shape"/>
</filter>
</defs>
</svg>
