<svg width="16" height="21" viewBox="0 0 16 21" fill="inherit" xmlns="http://www.w3.org/2000/svg">
    <g id="Group 68">
        <path id="Vector" d="M8.72725 13.0908H7.27271V15.9999H8.72725V13.0908Z" fill="inherit" />
        <path id="Vector_2" d="M12.3636 11.6362H10.9091V15.9999H12.3636V11.6362Z" fill="inherit" />
        <path id="Vector_3" d="M5.0909 8.72705H3.63635V15.9998H5.0909V8.72705Z" fill="inherit" />
        <path id="Vector_4"
            d="M14.5455 2.18182H12.3636V1.45455C12.3636 1.06878 12.2104 0.698807 11.9376 0.426026C11.6648 0.153246 11.2949 0 10.9091 0H5.09091C4.70514 0 4.33517 0.153246 4.06239 0.426026C3.78961 0.698807 3.63636 1.06878 3.63636 1.45455V2.18182H1.45455C1.06878 2.18182 0.698807 2.33506 0.426026 2.60784C0.153246 2.88062 0 3.25059 0 3.63636V18.9091C0 19.2949 0.153246 19.6648 0.426026 19.9376C0.698807 20.2104 1.06878 20.3636 1.45455 20.3636H14.5455C14.9312 20.3636 15.3012 20.2104 15.574 19.9376C15.8468 19.6648 16 19.2949 16 18.9091V3.63636C16 3.25059 15.8468 2.88062 15.574 2.60784C15.3012 2.33506 14.9312 2.18182 14.5455 2.18182ZM5.09091 1.45455H10.9091V4.36364H5.09091V1.45455ZM14.5455 18.9091H1.45455V3.63636H3.63636V5.81818H12.3636V3.63636H14.5455V18.9091Z"
            fill="inherit" />
    </g>
</svg>