<svg width="16" height="17" viewBox="0 0 16 17" fill="inherit" xmlns="http://www.w3.org/2000/svg">
    <path id="Vector" fill-rule="evenodd" clip-rule="evenodd"
        d="M8 15.0304C11.6819 15.0304 14.6667 12.0456 14.6667 8.36377C14.6667 4.68187 11.6819 1.6971 8 1.6971C4.3181 1.6971 1.33333 4.68187 1.33333 8.36377C1.33333 12.0456 4.3181 15.0304 8 15.0304ZM8 16.3638C12.4183 16.3638 16 12.7821 16 8.36377C16 3.94549 12.4183 0.36377 8 0.36377C3.58172 0.36377 0 3.94549 0 8.36377C0 12.7821 3.58172 16.3638 8 16.3638ZM8.66667 11.0304V12.3638H7.33333V11.0304H8.66667ZM6.66667 6.96981C6.66667 6.28611 7.24418 5.6971 8 5.6971C8.75582 5.6971 9.33333 6.28611 9.33333 6.96981C9.33333 7.24288 9.16898 7.56652 8.80676 7.93346C8.45564 8.28919 8.00924 8.59426 7.63804 8.83417L7.33333 9.03124V10.3638H8.66667V9.75248C9.00551 9.52199 9.40693 9.22341 9.75573 8.87008C10.206 8.4139 10.6667 7.76786 10.6667 6.96981C10.6667 5.51135 9.45324 4.36377 8 4.36377C6.54676 4.36377 5.33333 5.51135 5.33333 6.96981H6.66667Z"
        fill="inherit" />
</svg>