<svg width="16" height="14" viewBox="0 0 16 14" fill="inherit" xmlns="http://www.w3.org/2000/svg">
    <g id="Group 67">
        <path id="Vector"
            d="M13.7143 4H12.5715V2H11.4286V4H10.2858V10H11.4286V12H12.5715V10H13.7143V4ZM12.5715 9H11.4286V5H12.5715V9Z"
            fill="inherit" />
        <path id="Vector_2"
            d="M6.85716 3H5.7143V1H4.57145V3H3.42859V8H4.57145V10H5.7143V8H6.85716V3ZM5.7143 7H4.57145V4H5.7143V7Z"
            fill="inherit" />
        <path id="Vector_3"
            d="M16 14H1.14286C0.839753 14 0.549062 13.8946 0.334735 13.7071C0.120408 13.5196 0 13.2652 0 13V0H1.14286V13H16V14Z"
            fill="inherit" />
    </g>
</svg>