<svg width="16" height="16" viewBox="0 0 16 16" fill="inherit" xmlns="http://www.w3.org/2000/svg">
    <g id="Group 64">
        <path id="Vector"
            d="M7.9467 7.562C9.3867 7.562 10.5067 6.38867 10.5067 4.94867C10.5067 3.50867 9.33337 2.38867 7.89337 2.38867C6.45337 2.38867 5.33337 3.562 5.33337 4.94867C5.33337 6.38867 6.50671 7.562 7.9467 7.562ZM7.89337 3.45534C7.9467 3.45534 7.9467 3.45534 7.89337 3.45534C8.7467 3.45534 9.44004 4.14867 9.44004 5.002C9.44004 5.85534 8.7467 6.49534 7.89337 6.49534C7.04004 6.49534 6.40004 5.802 6.40004 5.002C6.40004 4.14867 7.09337 3.45534 7.89337 3.45534Z"
            fill="inherit" />
        <path id="Vector_2"
            d="M15.8399 7.24164C14.8266 6.33498 13.4933 5.85498 12.1066 5.90831C11.9466 5.90831 11.84 5.90831 11.68 5.90831C11.5733 6.33498 11.4133 6.70831 11.2 7.02831C11.52 6.97498 11.7866 6.97498 12.1066 6.97498C13.12 6.92164 14.1333 7.24164 14.9333 7.82831V11.6683H15.9999V7.40164L15.8399 7.24164Z"
            fill="inherit" />
        <path id="Vector_3"
            d="M10.88 2.49508C11.1466 1.85508 11.8933 1.53508 12.5866 1.80175C13.2266 2.06842 13.5466 2.81508 13.28 3.50842C13.0666 3.98842 12.5866 4.30841 12.1066 4.30841C12 4.30841 11.84 4.30841 11.7333 4.25508C11.7866 4.52175 11.7866 4.78841 11.7866 5.00175C11.7866 5.10841 11.7866 5.21508 11.7866 5.32175C11.8933 5.32175 12 5.37508 12.1066 5.37508C13.44 5.37508 14.5066 4.30841 14.5066 3.02842C14.5066 1.69508 13.44 0.628418 12.16 0.628418C11.3066 0.628418 10.56 1.05508 10.1333 1.80175C10.4 1.96175 10.6666 2.17508 10.88 2.49508Z"
            fill="inherit" />
        <path id="Vector_4"
            d="M4.8 7.08203C4.58666 6.76203 4.42666 6.38869 4.32 5.96203C4.16 5.96203 4.05333 5.96203 3.89333 5.96203C2.50666 5.90869 1.17333 6.38869 0.16 7.24203L0 7.40203V11.6687H1.06667V7.82869C1.92 7.24203 2.88 6.92203 3.89333 6.97536C4.21333 6.97536 4.53333 7.02869 4.8 7.08203Z"
            fill="inherit" />
        <path id="Vector_5"
            d="M3.89339 5.32184C4.00005 5.32184 4.10672 5.32184 4.21339 5.26851C4.21339 5.16184 4.21339 5.05517 4.21339 4.94851C4.21339 4.68184 4.21339 4.41517 4.26672 4.20184C4.16005 4.25517 4.00005 4.25517 3.89339 4.25517C3.20005 4.25517 2.61339 3.66851 2.61339 2.97517C2.61339 2.28184 3.20005 1.69518 3.89339 1.69518C4.42672 1.69518 4.90672 2.01518 5.12005 2.49517C5.33339 2.22851 5.65339 1.96184 5.92005 1.74851C5.22672 0.62851 3.78672 0.255177 2.66672 0.948509C1.54672 1.64184 1.17339 3.08184 1.86672 4.20184C2.29339 4.89517 3.04005 5.32184 3.89339 5.32184Z"
            fill="inherit" />
        <path id="Vector_6"
            d="M12.3201 10.442L12.2134 10.282C11.1467 9.10869 9.65339 8.41536 8.0534 8.46869C6.4534 8.41536 4.90673 9.10869 3.84006 10.282L3.7334 10.442V14.4954C3.7334 14.9754 4.10673 15.402 4.64006 15.402H11.4667C11.9467 15.402 12.3734 14.9754 12.3734 14.4954V10.442H12.3201ZM11.2534 14.3354H4.80006V10.8154C5.6534 9.96202 6.82673 9.53536 8.0534 9.53536C9.22673 9.48202 10.4001 9.96202 11.2534 10.8154V14.3354Z"
            fill="inherit" />
    </g>
</svg>