<svg width="16" height="20" viewBox="0 0 16 20" fill="none" xmlns="http://www.w3.org/2000/svg">
<g id="fff 1" clip-path="url(#clip0_1413_54)">
<path id="Vector" d="M13.7499 11.9998C14.9926 11.9998 16 13.0072 16 14.2499V15.155C16 16.2487 15.5225 17.2879 14.6927 18.0003C13.1272 19.3443 10.8868 20.0012 7.9967 20.0012C5.10712 20.0012 2.86823 19.3446 1.30532 18.0008C0.476669 17.2884 0 16.25 0 15.1572V14.2499C0 13.0072 1.00739 11.9998 2.25007 11.9998H13.7499ZM13.7499 13.4998H2.25007C1.83584 13.4998 1.50005 13.8356 1.50005 14.2499V15.1572C1.50005 15.8129 1.78605 16.4359 2.28324 16.8634C3.54136 17.9451 5.43743 18.5011 7.9967 18.5011C10.5568 18.5011 12.4546 17.9447 13.7156 16.8622C14.2135 16.4347 14.5 15.8112 14.5 15.155V14.2499C14.5 13.8356 14.1642 13.4998 13.7499 13.4998ZM7.89526 0.00684687L7.99703 0C8.37674 0 8.69055 0.282163 8.74021 0.648249L8.74706 0.750023L8.74627 1.49905L12.2468 1.49955C13.4895 1.49955 14.4969 2.50694 14.4969 3.74962V8.25434C14.4969 9.49702 13.4895 10.5044 12.2468 10.5044H3.74657C2.50389 10.5044 1.4965 9.49702 1.4965 8.25434V3.74962C1.4965 2.50694 2.50389 1.49955 3.74657 1.49955L7.24622 1.49905L7.24701 0.750023C7.24701 0.370315 7.52917 0.0565108 7.89526 0.00684687ZM12.2468 2.9996H3.74657C3.33235 2.9996 2.99655 3.33539 2.99655 3.74962V8.25434C2.99655 8.66857 3.33235 9.00437 3.74657 9.00437H12.2468C12.6611 9.00437 12.9969 8.66857 12.9969 8.25434V3.74962C12.9969 3.33539 12.6611 2.9996 12.2468 2.9996ZM5.74592 4.49964C6.43591 4.49964 6.99525 5.05898 6.99525 5.74897C6.99525 6.43895 6.43591 6.99829 5.74592 6.99829C5.05594 6.99829 4.4966 6.43895 4.4966 5.74897C4.4966 5.05898 5.05594 4.49964 5.74592 4.49964ZM10.2388 4.49964C10.9288 4.49964 11.4881 5.05898 11.4881 5.74897C11.4881 6.43895 10.9288 6.99829 10.2388 6.99829C9.54881 6.99829 8.98947 6.43895 8.98947 5.74897C8.98947 5.05898 9.54881 4.49964 10.2388 4.49964Z" fill="white"/>
</g>
<defs>
<clipPath id="clip0_1413_54">
<rect width="16" height="20" fill="white"/>
</clipPath>
</defs>
</svg>
