<svg width="16" height="16" viewBox="0 0 16 16" fill="inherit" xmlns="http://www.w3.org/2000/svg">
    <g id="Group 55">
        <path id="Vector"
            d="M12.6664 6.04365C12.9114 5.67603 12.8121 5.17933 12.4445 4.93425C12.0769 4.68917 11.5801 4.78851 11.3351 5.15613L9.11471 8.48669L6.44303 6.68325C5.93751 6.34203 5.24824 6.50701 4.95204 7.04021L3.30138 10.0114C3.08681 10.3976 3.22596 10.8846 3.6122 11.0992C3.99842 11.3138 4.48546 11.1746 4.70004 10.7884L6.05408 8.35109L8.68639 10.1279C9.16439 10.4506 9.81367 10.3227 10.1336 9.84277L12.6664 6.04365Z"
            fill="inherit" />
        <path id="Vector_2" fill-rule="evenodd" clip-rule="evenodd"
            d="M4 0C1.79086 0 0 1.79086 0 4V12C0 14.2091 1.79086 16 4 16H12C14.2091 16 16 14.2091 16 12V4C16 1.79086 14.2091 0 12 0H4ZM1.6 4C1.6 2.67452 2.67452 1.6 4 1.6H12C13.3255 1.6 14.4 2.67452 14.4 4V12C14.4 13.3255 13.3255 14.4 12 14.4H4C2.67452 14.4 1.6 13.3255 1.6 12V4Z"
            fill="inherit" />
    </g>
</svg>