<svg width="16" height="16" viewBox="0 0 16 16" fill="inherit" xmlns="http://www.w3.org/2000/svg">
    <g id="Group">
        <path id="Vector"
            d="M7.33329 9.77767C7.15648 9.77767 6.98691 9.70743 6.86189 9.58241C6.73686 9.45738 6.66663 9.28781 6.66663 9.111C6.66663 8.93419 6.73686 8.76462 6.86189 8.6396C6.98691 8.51457 7.15648 8.44434 7.33329 8.44434C7.5101 8.44434 7.67967 8.51457 7.8047 8.6396C7.92972 8.76462 7.99996 8.93419 7.99996 9.111C7.99996 9.28781 7.92972 9.45738 7.8047 9.58241C7.67967 9.70743 7.5101 9.77767 7.33329 9.77767Z"
            fill="inherit" />
        <path id="Vector_2" fill-rule="evenodd" clip-rule="evenodd"
            d="M1.524 6.22222C1.61022 6.22222 1.69511 6.21511 1.77778 6.20089V9.77778H0.666667C0.60773 9.77778 0.551207 9.80119 0.509532 9.84286C0.467857 9.88454 0.444444 9.94106 0.444444 10V10.4444C0.444444 10.5034 0.467857 10.5599 0.509532 10.6016C0.551207 10.6433 0.60773 10.6667 0.666667 10.6667H15.3333C15.3923 10.6667 15.4488 10.6433 15.4905 10.6016C15.5321 10.5599 15.5556 10.5034 15.5556 10.4444V10C15.5556 9.94106 15.5321 9.88454 15.4905 9.84286C15.4488 9.80119 15.3923 9.77778 15.3333 9.77778H14.2222V6.20089C14.3049 6.21511 14.3898 6.22222 14.476 6.22222C15.3213 6.22222 16 5.53244 16 4.68933V3.62711C16 3.48617 15.9755 3.3463 15.9276 3.21378L14.9587 0.542667C14.9012 0.383684 14.7961 0.246283 14.6577 0.149177C14.5193 0.0520711 14.3544 -1.94531e-05 14.1853 5.44958e-09H1.81422C1.64527 0.000196242 1.48047 0.0524366 1.34226 0.149614C1.20405 0.246792 1.09913 0.384188 1.04178 0.543111L0.0728889 3.21378C0.0247488 3.34627 8.30079e-05 3.48614 0 3.62711V4.68933C0 5.53244 0.678667 6.22222 1.524 6.22222ZM0.908444 3.51689L1.86178 0.888889H14.1378L15.0911 3.51689C15.1044 3.55244 15.1107 3.58933 15.1107 3.62711V4.68933C15.1117 4.85892 15.0454 5.022 14.9264 5.14274C14.8073 5.26349 14.6451 5.33204 14.4756 5.33333C14.1289 5.33333 13.8409 5.04889 13.8409 4.68933C13.8409 4.57146 13.7941 4.45841 13.7107 4.37506C13.6274 4.29171 13.5143 4.24489 13.3964 4.24489C13.2786 4.24489 13.1655 4.29171 13.0822 4.37506C12.9988 4.45841 12.952 4.57146 12.952 4.68933C12.9531 4.85892 12.8868 5.022 12.7677 5.14274C12.6486 5.26349 12.4865 5.33204 12.3169 5.33333C11.9702 5.33333 11.6822 5.04889 11.6822 4.68978C11.6822 4.5719 11.6354 4.45886 11.552 4.37551C11.4687 4.29216 11.3557 4.24533 11.2378 4.24533C11.1199 4.24533 11.0069 4.29216 10.9235 4.37551C10.8402 4.45886 10.7933 4.5719 10.7933 4.68978C10.7933 5.04889 10.5053 5.33333 10.1582 5.33333C9.81111 5.33333 9.52356 5.04889 9.52356 4.68933C9.52356 4.57146 9.47673 4.45841 9.39338 4.37506C9.31003 4.29171 9.19699 4.24489 9.07911 4.24489C8.96124 4.24489 8.84819 4.29171 8.76484 4.37506C8.68149 4.45841 8.63467 4.57146 8.63467 4.68933C8.63585 4.85888 8.56966 5.02196 8.45065 5.14272C8.33164 5.26348 8.16955 5.33204 8 5.33333C7.83049 5.33204 7.66842 5.26355 7.54935 5.1429C7.43028 5.02225 7.36394 4.85929 7.36489 4.68978C7.36489 4.5719 7.31806 4.45886 7.23471 4.37551C7.15136 4.29216 7.03832 4.24533 6.92044 4.24533C6.80257 4.24533 6.68952 4.29216 6.60617 4.37551C6.52283 4.45886 6.476 4.5719 6.476 4.68978C6.476 5.04889 6.18844 5.33333 5.84133 5.33333C5.49422 5.33333 5.20622 5.04889 5.20622 4.68933C5.20622 4.57146 5.1594 4.45841 5.07605 4.37506C4.9927 4.29171 4.87965 4.24489 4.76178 4.24489C4.6439 4.24489 4.53086 4.29171 4.44751 4.37506C4.36416 4.45841 4.31733 4.57146 4.31733 4.68933C4.31733 5.04844 4.02978 5.33333 3.68267 5.33333C3.33556 5.33333 3.04756 5.04889 3.04756 4.68933C3.04756 4.57146 3.00073 4.45841 2.91738 4.37506C2.83403 4.29171 2.72099 4.24489 2.60311 4.24489C2.48524 4.24489 2.37219 4.29171 2.28884 4.37506C2.20549 4.45841 2.15867 4.57146 2.15867 4.68933C2.15867 5.04844 1.87111 5.33333 1.524 5.33333C1.17644 5.33333 0.888889 5.04889 0.888889 4.68933V3.62711C0.88888 3.58951 0.8955 3.5522 0.908444 3.51689ZM13.3333 5.832C13.0549 6.08372 12.6927 6.22281 12.3173 6.22222C12.1166 6.22247 11.9177 6.18274 11.7325 6.10537C11.5472 6.028 11.3792 5.91452 11.2382 5.77156C11.0972 5.91457 10.9291 6.02808 10.7438 6.10546C10.5584 6.18283 10.3595 6.22253 10.1587 6.22222C9.95789 6.22247 9.75907 6.18274 9.57381 6.10537C9.38854 6.028 9.22052 5.91452 9.07956 5.77156C8.93854 5.91457 8.77045 6.02808 8.5851 6.10546C8.39975 6.18283 8.20085 6.22253 8 6.22222C7.79915 6.22253 7.60025 6.18283 7.4149 6.10546C7.22955 6.02808 7.06146 5.91457 6.92044 5.77156C6.77948 5.91452 6.61146 6.028 6.42619 6.10537C6.24093 6.18274 6.04211 6.22247 5.84133 6.22222C5.41867 6.22222 5.03689 6.04933 4.76178 5.77156C4.62081 5.91452 4.4528 6.028 4.26753 6.10537C4.08226 6.18274 3.88344 6.22247 3.68267 6.22222C3.29156 6.22222 2.936 6.07422 2.66667 5.832V9.77778H3.77778C3.71884 9.77778 3.66232 9.75436 3.62064 9.71269C3.57897 9.67102 3.55556 9.61449 3.55556 9.55556V8.66667C3.55556 8.60773 3.57897 8.55121 3.62064 8.50953C3.66232 8.46786 3.71884 8.44444 3.77778 8.44444H5.11111C5.17005 8.44444 5.22657 8.46786 5.26825 8.50953C5.30992 8.55121 5.33333 8.60773 5.33333 8.66667V8.88889H6C6.05894 8.88889 6.11546 8.9123 6.15714 8.95398C6.19881 8.99565 6.22222 9.05217 6.22222 9.11111V9.55556C6.22222 9.61449 6.19881 9.67102 6.15714 9.71269C6.11546 9.75436 6.05894 9.77778 6 9.77778H13.3333V5.832ZM0.888889 12C0.888889 11.8821 0.935714 11.7691 1.01906 11.6857C1.10241 11.6024 1.21546 11.5556 1.33333 11.5556H14.6667C14.7845 11.5556 14.8976 11.6024 14.9809 11.6857C15.0643 11.7691 15.1111 11.8821 15.1111 12V15.5556C15.1111 15.6734 15.0643 15.7865 14.9809 15.8698C14.8976 15.9532 14.7845 16 14.6667 16H1.33333C1.21546 16 1.10241 15.9532 1.01906 15.8698C0.935714 15.7865 0.888889 15.6734 0.888889 15.5556V12ZM1.77778 15.1111V12.4444H14.2222V15.1111H1.77778Z"
            fill="inherit" />
    </g>
</svg>