<svg width="16" height="17" viewBox="0 0 16 17" fill="inherit" xmlns="http://www.w3.org/2000/svg">
    <g id="Group 95">
        <path id="Vector"
            d="M10.1917 0.36377C9.17408 0.363755 8.3537 0.36374 7.70857 0.450482C7.03873 0.540542 6.4747 0.733203 6.02678 1.18114C5.63613 1.57178 5.43874 2.05184 5.33513 2.61592C5.23445 3.16405 5.21519 3.83484 5.2107 4.6397C5.20899 4.94793 5.45748 5.19921 5.76573 5.20093C6.07397 5.20264 6.32524 4.95415 6.32696 4.64591C6.33149 3.83215 6.35262 3.25535 6.43303 2.81759C6.51051 2.39578 6.63494 2.15163 6.81607 1.97046C7.02206 1.7645 7.31125 1.63021 7.85726 1.5568C8.41941 1.48122 9.16441 1.48004 10.2326 1.48004H10.9768C12.045 1.48004 12.79 1.48122 13.3521 1.5568C13.8982 1.63021 14.1873 1.7645 14.3933 1.97046C14.5993 2.17642 14.7335 2.46559 14.807 3.01165C14.8825 3.57376 14.8837 4.31878 14.8837 5.38698V11.3404C14.8837 12.4086 14.8825 13.1536 14.807 13.7158C14.7335 14.2618 14.5993 14.5509 14.3933 14.7569C14.1873 14.9629 13.8982 15.0972 13.3521 15.1706C12.79 15.2462 12.045 15.2473 10.9768 15.2473H10.2326C9.16441 15.2473 8.41941 15.2462 7.85726 15.1706C7.31125 15.0972 7.02206 14.9629 6.81607 14.7569C6.63494 14.5757 6.51051 14.3316 6.43303 13.9098C6.35262 13.472 6.33149 12.8952 6.32696 12.0815C6.32524 11.7732 6.07397 11.5247 5.76573 11.5265C5.45748 11.5282 5.20899 11.7795 5.2107 12.0877C5.21519 12.8925 5.23445 13.5633 5.33513 14.1114C5.43874 14.6755 5.63613 15.1556 6.02678 15.5463C6.4747 15.9942 7.03873 16.1869 7.70857 16.2769C8.3537 16.3636 9.17408 16.3636 10.1917 16.3636H11.0176C12.0354 16.3636 12.8557 16.3636 13.5009 16.2769C14.1707 16.1869 14.7347 15.9942 15.1827 15.5463C15.6306 15.0983 15.8232 14.5344 15.9133 13.8645C16.0001 13.2193 16 12.399 16 11.3813V5.34614C16 4.32841 16.0001 3.50809 15.9133 2.86291C15.8232 2.19307 15.6306 1.62908 15.1827 1.18114C14.7347 0.733203 14.1707 0.540542 13.5009 0.450482C12.8557 0.36374 12.0354 0.363755 11.0176 0.36377H10.1917Z"
            fill="inherit" />
        <path id="Vector_2"
            d="M10.2325 7.80579C10.5407 7.80579 10.7906 8.05568 10.7906 8.36392C10.7906 8.67216 10.5407 8.92206 10.2325 8.92206H2.06691L3.52599 10.1727C3.76003 10.3733 3.78713 10.7256 3.58653 10.9597C3.38592 11.1937 3.03357 11.2208 2.79953 11.0202L0.194908 8.78766C0.0711956 8.68169 0 8.52682 0 8.36392C0 8.20102 0.0711956 8.04616 0.194908 7.94019L2.79953 5.70762C3.03357 5.50701 3.38592 5.53412 3.58653 5.76816C3.78713 6.0022 3.76003 6.35455 3.52599 6.55515L2.06691 7.80579H10.2325Z"
            fill="inherit" />
    </g>
</svg>