<svg width="17" height="17" viewBox="0 0 17 17 " fill="none" xmlns="http://www.w3.org/2000/svg">
    <path id="Vector"
        d="M6.86667 3.03031H7.93333M5.26667 4.63031V1.96364C5.26667 1.37454 5.74423 0.896973 6.33333 0.896973H10.6C11.1891 0.896973 11.6667 1.37454 11.6667 1.96364V7.29697C11.6667 7.88607 11.1891 8.36364 10.6 8.36364H6.33333C5.74423 8.36364 5.26667 8.84121 5.26667 9.43031V14.7636C5.26667 15.3528 5.74423 15.8303 6.33333 15.8303H10.6C11.1891 15.8303 11.6667 15.3528 11.6667 14.7636V12.097M9 5.16364H2.06667C1.47756 5.16364 1 5.64121 1 6.23031V11.5636C1 12.1528 1.47756 12.6303 2.06667 12.6303H5.26667M7.93333 11.5636H14.8667C15.4558 11.5636 15.9333 11.0861 15.9333 10.497V5.16364C15.9333 4.57454 15.4558 4.09697 14.8667 4.09697H11.6667M9 13.697H10.0667"
        stroke="#747474" fill="inherit" stroke-width="1.06667" />
</svg> 