<svg width="16" height="16" viewBox="0 0 16 16" fill="inherit" xmlns="http://www.w3.org/2000/svg">
    <g id="Group 66">
        <g id="Group 65">
            <path id="Vector"
                d="M12 16C11.2089 16 10.4355 15.7654 9.77772 15.3259C9.11992 14.8864 8.60723 14.2616 8.30448 13.5307C8.00173 12.7998 7.92252 11.9956 8.07686 11.2196C8.2312 10.4437 8.61216 9.73098 9.17157 9.17157C9.73098 8.61216 10.4437 8.2312 11.2196 8.07686C11.9956 7.92252 12.7998 8.00173 13.5307 8.30448C14.2616 8.60723 14.8864 9.11992 15.3259 9.77772C15.7654 10.4355 16 11.2089 16 12C15.9988 13.0605 15.577 14.0772 14.8271 14.8271C14.0772 15.577 13.0605 15.9988 12 16ZM12 9.14286C11.4349 9.14286 10.8825 9.31043 10.4127 9.62437C9.9428 9.93832 9.5766 10.3845 9.36035 10.9066C9.1441 11.4287 9.08751 12.0032 9.19776 12.5574C9.308 13.1116 9.58012 13.6207 9.9797 14.0203C10.3793 14.4199 10.8884 14.692 11.4426 14.8022C11.9968 14.9125 12.5713 14.8559 13.0934 14.6397C13.6155 14.4234 14.0617 14.0572 14.3756 13.5873C14.6896 13.1175 14.8571 12.5651 14.8571 12C14.8563 11.2425 14.555 10.5163 14.0194 9.98061C13.4837 9.44498 12.7575 9.14369 12 9.14286Z"
                fill="inherit" />
            <path id="Vector_2"
                d="M13.7143 12.9062L12.5714 11.7634V10.2856H11.4286V12.2365L12.9063 13.7142L13.7143 12.9062Z"
                fill="inherit" />
            <path id="Vector_3" d="M6.85716 8H3.42859V9.14286H6.85716V8Z" fill="inherit" />
            <path id="Vector_4" d="M10.2857 4.57129H3.42859V5.71415H10.2857V4.57129Z" fill="inherit" />
            <path id="Vector_5"
                d="M13.7143 1.14286C13.7139 0.839859 13.5934 0.549371 13.3792 0.335119C13.1649 0.120867 12.8744 0.000347848 12.5714 0H1.14286C0.839863 0.000347848 0.549375 0.120867 0.335123 0.335119C0.120871 0.549371 0.000351548 0.839859 3.70043e-06 1.14286V8.57142C-0.00123374 9.71106 0.307907 10.8295 0.894244 11.8067C1.48058 12.784 2.32198 13.5831 3.32812 14.1183L6.28572 15.6953V14.4L3.86606 13.1099C3.04283 12.672 2.35439 12.0182 1.87463 11.2186C1.39487 10.419 1.1419 9.50389 1.14286 8.57142V1.14286H12.5714V6.28571H13.7143V1.14286Z"
                fill="inherit" />
        </g>
    </g>
</svg>