<svg width="16" height="16" viewBox="0 0 16 16" fill="inherit" xmlns="http://www.w3.org/2000/svg">
    <g id="b">
        <path id="Vector"
            d="M7.959 0.52002C7.0765 0.52002 5.60317 1.67267 3.76855 3.17976C3.40419 3.47898 3.06622 3.75663 2.7788 3.98002C0.831015 5.49395 0 6.4369 0 7.13299C0 7.82612 2.64917 14.6698 3.70141 15.1372C4.25558 15.3833 5.9901 15.4798 7.80698 15.4798C9.47729 15.4798 11.2172 15.3983 12.1709 15.2762C12.3368 15.2551 12.5873 15.2229 14.3338 11.4601C15.1227 9.76013 16.0518 7.62037 15.9977 7.08033C15.8931 6.03806 9.13155 0.52002 7.959 0.52002ZM15.2028 6.87343L12.9324 7.2753C11.8108 6.20602 9.63348 4.39201 8.27736 3.47599V1.25992C9.68011 1.91966 14.2695 5.64272 15.2028 6.87343ZM8.27736 4.25203C9.46993 5.10233 11.0976 6.45189 12.1493 7.41394L8.27736 8.09931V4.25203ZM7.64064 8.09361L3.70335 7.33693C3.99016 7.08524 4.33466 6.80285 4.73232 6.49366C5.03935 6.25537 5.40028 5.95923 5.78922 5.63979C6.23037 5.27737 7.00497 4.64128 7.64061 4.17237L7.64064 8.09361ZM7.43482 8.70247L5.31467 11.9725C4.77263 10.9034 4.04187 9.18934 3.57228 7.96015L7.43482 8.70247ZM7.95807 9.06572L10.0062 12.248C9.31661 12.2783 8.56376 12.2955 7.83557 12.2955C6.98154 12.2955 6.34628 12.2743 5.89294 12.2508L7.95807 9.06572ZM8.48566 8.70919L12.377 8.02039C11.902 9.159 11.1647 10.7629 10.5717 11.9504L8.48566 8.70919ZM3.16962 4.48277C3.46092 4.25629 3.80338 3.97508 4.17274 3.67178C5.24059 2.79457 6.78641 1.52486 7.64067 1.22305V3.41458C7.60619 3.43037 7.57063 3.44272 7.53854 3.46501C6.84261 3.95047 5.93025 4.69989 5.38509 5.14773C5.00112 5.46329 4.64484 5.75538 4.34173 5.99088C3.79361 6.41697 3.34093 6.7961 2.99647 7.11726C2.97326 7.13888 2.95788 7.16562 2.93853 7.18988L0.767725 6.77267C1.00242 6.37701 1.62443 5.68375 3.16962 4.48277ZM0.684315 7.40506L2.84152 7.81969C3.33574 9.16817 4.26968 11.3701 4.88249 12.5226C4.89338 12.543 4.90905 12.5594 4.92188 12.5783L3.76699 14.3594C2.96724 13.3223 1.00987 8.73406 0.684315 7.40506ZM4.33441 14.6545L5.4961 12.8628C5.95741 12.896 6.71341 12.9322 7.83554 12.9322C8.70463 12.9322 9.61297 12.9089 10.4044 12.8668L11.5839 14.6995C9.46478 14.896 5.66798 14.8941 4.33441 14.6545ZM12.1508 14.404L10.9663 12.5636C10.9757 12.5485 10.988 12.5361 10.9962 12.52C11.6659 11.2082 12.5835 9.21188 13.0854 7.97496C13.0965 7.94771 13.0984 7.91934 13.1055 7.89145L15.2906 7.50464C14.8843 8.87592 12.8833 13.1721 12.1508 14.404Z"
            fill="inherit" />
    </g>
</svg>