<svg width="18" height="18" viewBox="0 0 18 18" fill="none" xmlns="http://www.w3.org/2000/svg">
    <g id="Group 61">
        <path id="Vector" fill-rule="evenodd" clip-rule="evenodd"
            d="M8.99996 1.36377C9.40109 1.36377 9.79651 1.39348 10.1816 1.45062L10.7622 3.20943C11.2708 3.35457 11.7542 3.56143 12.2022 3.82199L13.8707 3.01744C14.4615 3.47114 14.9872 4.00598 15.4306 4.60483L14.5964 6.2585C14.8489 6.71105 15.0478 7.1979 15.1838 7.70989L16.9323 8.31901C17.0287 9.05842 17.0221 9.80762 16.9129 10.5452L15.1541 11.1258C15.0099 11.6292 14.8042 12.1128 14.5415 12.5658L15.3461 14.2343C14.8918 14.8253 14.3575 15.3503 13.7587 15.7942L12.105 14.96C11.6476 15.2154 11.16 15.4128 10.6536 15.5474L10.0445 17.2959C9.30509 17.3923 8.5559 17.3857 7.81828 17.2765L7.23772 15.5177C6.73436 15.3735 6.25071 15.1678 5.79776 14.9051L4.12923 15.7097C3.53823 15.2554 3.01322 14.7211 2.56928 14.1223L3.40354 12.4686C3.1487 12.0109 2.9514 11.5234 2.81613 11.0172L1.0676 10.407C0.971369 9.66792 0.977907 8.91912 1.08703 8.18187L2.84584 7.60132C2.99098 7.09276 3.19783 6.60934 3.4584 6.16136L2.65385 4.49283C3.10816 3.90182 3.6424 3.37682 4.24123 2.93287L5.8949 3.76713C6.35236 3.51168 6.83993 3.31435 7.34629 3.17972L7.95656 1.4312C8.30254 1.38619 8.65107 1.36366 8.99996 1.36377Z"
            stroke="#747474" stroke-width="0.933" stroke-linecap="round" stroke-linejoin="round" />
        <path id="Vector_2"
            d="M8.99977 12.792C10.8933 12.792 12.4282 11.257 12.4282 9.36354C12.4282 7.47004 10.8933 5.93506 8.99977 5.93506C7.10627 5.93506 5.57129 7.47004 5.57129 9.36354C5.57129 11.257 7.10627 12.792 8.99977 12.792Z"
            stroke="#747474" stroke-linecap="round" stroke-linejoin="round" />
    </g>
</svg>