<svg width="16" height="17" viewBox="0 0 16 17" fill="none" xmlns="http://www.w3.org/2000/svg">
<path id="plus-square" fill-rule="evenodd" clip-rule="evenodd" d="M15 14.5C15 15.05 14.552 15.5 14 15.5H2C1.448 15.5 1 15.05 1 14.5V2.5C1 1.95 1.448 1.5 2 1.5H14C14.552 1.5 15 1.95 15 2.5V14.5ZM14 0.5H2C0.8955 0.5 0 1.395 0 2.5V14.5C0 15.605 0.8955 16.5 2 16.5H14C15.1045 16.5 16 15.605 16 14.5V2.5C16 1.395 15.1045 0.5 14 0.5ZM11 8H8.5V5.5C8.5 5.225 8.276 5 8 5C7.724 5 7.5 5.225 7.5 5.5V8H5C4.724 8 4.5 8.225 4.5 8.5C4.5 8.775 4.724 9 5 9H7.5V11.5C7.5 11.775 7.724 12 8 12C8.276 12 8.5 11.775 8.5 11.5V9H11C11.276 9 11.5 8.775 11.5 8.5C11.5 8.225 11.276 8 11 8Z" fill="white"/>
</svg>
